<?xml version="1.0" encoding="UTF-8"?>
<svg id="Layer_1" data-name="Layer 1" xmlns="http://www.w3.org/2000/svg" version="1.1" viewBox="0 0 363 224">
  <defs>
    <style>
      .cls-1 {
        fill: #2c3239;
      }

      .cls-1, .cls-2, .cls-3, .cls-4 {
        stroke-width: 0px;
      }

      .cls-2 {
        fill: #4f5358;
      }

      .cls-3 {
        fill: #fff;
      }

      .cls-4 {
        fill: #201dcd;
      }
    </style>
  </defs>
  <g>
    <rect class="cls-1" x="60" y="30" width="243" height="104" rx="10" ry="10"/>
    <path class="cls-3" d="M149.1,108c-.2,0-.3,0-.4-.2,0-.1-.1-.2-.1-.4v-11.4l-3.3,2.6c-.1,0-.3.1-.4.1-.1,0-.2-.1-.4-.2l-.9-1.2c0-.1-.1-.3-.1-.4,0-.1.1-.3.2-.4l4.9-3.8c0,0,.2-.1.3-.1,0,0,.2,0,.3,0h1.9c.1,0,.3,0,.4.2s.2.2.2.4v14.3c0,.1,0,.3-.2.4-.1.1-.2.2-.4.2h-2ZM160.4,108.2c-1,0-1.9-.2-2.7-.5-.7-.3-1.3-.7-1.8-1.3-.5-.5-.8-1.2-1.1-1.9-.2-.7-.4-1.5-.4-2.3,0-.4,0-.8,0-1.3v-1.5c0-.5,0-.9,0-1.3,0-.8.2-1.6.4-2.3.2-.7.6-1.3,1.1-1.9.5-.5,1.1-.9,1.8-1.3.7-.3,1.6-.5,2.6-.5s1.9.2,2.6.5c.7.3,1.3.7,1.8,1.3.5.5.8,1.2,1.1,1.9.2.7.4,1.5.4,2.3,0,.4,0,.9,0,1.3v1.5c0,.5,0,.9,0,1.3,0,.8-.2,1.6-.4,2.3-.2.7-.6,1.3-1.1,1.9-.5.5-1.1,1-1.8,1.3-.7.3-1.6.5-2.7.5ZM160.4,105.7c1,0,1.7-.3,2.1-.9.5-.6.7-1.5.7-2.6,0-.4,0-.9,0-1.3v-1.3c0-.4,0-.9,0-1.3,0-1-.2-1.9-.7-2.5-.4-.6-1.1-1-2.1-1s-1.6.3-2.1,1c-.4.6-.7,1.5-.7,2.5,0,.4,0,.8,0,1.3v1.3c0,.4,0,.9,0,1.3,0,1.1.3,1.9.7,2.6.5.6,1.1.9,2.1.9ZM174.9,108.2c-1,0-1.9-.2-2.7-.5-.7-.3-1.3-.7-1.8-1.3-.5-.5-.8-1.2-1.1-1.9-.2-.7-.4-1.5-.4-2.3,0-.4,0-.8,0-1.3v-1.5c0-.5,0-.9,0-1.3,0-.8.2-1.6.4-2.3.2-.7.6-1.3,1.1-1.9.5-.5,1.1-.9,1.8-1.3.7-.3,1.6-.5,2.6-.5s1.9.2,2.6.5c.7.3,1.3.7,1.8,1.3.5.5.8,1.2,1.1,1.9.2.7.4,1.5.4,2.3,0,.4,0,.9,0,1.3v1.5c0,.5,0,.9,0,1.3,0,.8-.2,1.6-.4,2.3-.2.7-.6,1.3-1.1,1.9-.5.5-1.1,1-1.8,1.3-.7.3-1.6.5-2.7.5ZM174.9,105.7c1,0,1.7-.3,2.1-.9.5-.6.7-1.5.7-2.6,0-.4,0-.9,0-1.3v-1.3c0-.4,0-.9,0-1.3,0-1-.2-1.9-.7-2.5-.4-.6-1.1-1-2.1-1s-1.6.3-2.1,1c-.4.6-.7,1.5-.7,2.5,0,.4,0,.8,0,1.3v1.3c0,.4,0,.9,0,1.3,0,1.1.3,1.9.7,2.6.5.6,1.1.9,2.1.9Z"/>
    <path class="cls-2" d="M152.8,58.3c-.4-.2-.7-.3-1.2-.5-.4-.1-.8-.2-1.2-.3-.4,0-.7,0-.9,0-.9,0-1.7.2-2.4.5-.7.3-1.3.8-1.9,1.3-.5.6-.9,1.3-1.2,2.1-.3.8-.4,1.6-.4,2.6s.1,1.7.4,2.5c.3.8.6,1.4,1.1,2,.5.6,1.1,1,1.8,1.3.7.3,1.6.5,2.5.5s.7,0,1.1-.1c.4,0,.8-.1,1.2-.3s.8-.3,1.1-.4l-.9-1.7c-.4.2-.8.3-1.2.4s-.9.2-1.4.2-1-.1-1.4-.3c-.4-.2-.8-.5-1-1-.3-.4-.5-.9-.6-1.4-.1-.5-.2-1.1-.2-1.7,0-.9.2-1.7.4-2.4.3-.7.7-1.2,1.2-1.5.5-.4,1.1-.5,1.7-.5s.7,0,.9,0,.5.1.8.2c.3,0,.6.1.9.3l.7-1.7ZM155.9,67.4c0-.3.1-.6.3-.8s.5-.4.9-.4h1.8v1.3c-.3.3-.6.5-1,.6-.3.1-.6.2-1,.2s-.4,0-.6-.1c-.2,0-.3-.2-.4-.4,0-.2-.1-.3-.1-.5ZM155,63.8c.3-.1.7-.3,1.2-.4.5-.1.9-.2,1.3-.2s.8.1,1,.4c.3.2.4.6.4,1h0s-1.7,0-1.7,0c-1,0-1.8.3-2.4.7-.6.5-.9,1.2-.9,2.1s.3,1.5.8,2.1c.5.5,1.3.8,2.4.8s.8-.1,1.2-.3c.4-.2.8-.5,1.1-.8l.4.9h1.5v-5.7c0-.6-.2-1.2-.5-1.7-.3-.5-.8-.9-1.4-1.2-.6-.3-1.2-.4-1.9-.4s-.6,0-1,.1c-.4,0-.8.2-1.2.3-.4.1-.7.2-.9.4l.6,1.9ZM165.7,70v-12.7l-2.3.2v12.5h2.3ZM172,70.2c-.9,0-1.8-.2-2.5-.6-.7-.4-1.2-.9-1.6-1.6-.4-.7-.6-1.5-.6-2.4,0-.9.2-1.7.6-2.4.4-.7.9-1.2,1.6-1.6.7-.4,1.5-.6,2.5-.6s1.8.2,2.5.6c.7.4,1.2.9,1.6,1.6.4.7.6,1.5.6,2.4s-.2,1.7-.6,2.4-.9,1.2-1.6,1.6c-.7.4-1.5.6-2.5.6ZM172,68.2c.4,0,.8-.1,1.2-.3.3-.2.6-.5.8-.9.2-.4.3-.8.3-1.3s0-.9-.3-1.3c-.2-.4-.5-.7-.8-.9-.3-.2-.7-.3-1.2-.3s-.8.1-1.2.3c-.3.2-.6.5-.8.9-.2.4-.3.8-.3,1.3s0,.9.3,1.3c.2.4.5.7.8.9.3.2.7.3,1.2.3ZM180.4,70v-5.3c.3-.3.7-.6,1.1-.8.4-.2.8-.4,1.1-.5.3-.1.7-.2.9-.2l-.5-1.9c-.3,0-.7,0-1,.2-.4.2-.7.3-1.1.6-.3.2-.6.4-.9.6l-.8-1.5h-1.2v8.7h2.3ZM187,70v-8.7h-2.4v8.7h2.4ZM185.9,60c.4,0,.7-.1.9-.4.3-.3.4-.6.4-1s-.1-.7-.4-.9c-.3-.3-.6-.4-.9-.4s-.7.1-.9.4c-.3.3-.4.6-.4.9s.1.7.4,1c.3.3.6.4.9.4ZM196.8,66.3v-.7c0-.8-.1-1.6-.4-2.3-.3-.7-.7-1.2-1.3-1.7-.6-.4-1.3-.6-2.2-.6s-1.7.2-2.3.6c-.7.4-1.2.9-1.5,1.6-.3.7-.5,1.5-.5,2.4s.2,1.7.6,2.4c.4.7.9,1.2,1.7,1.6.8.4,1.7.6,2.8.6s.9,0,1.3-.1c.4,0,.8-.2,1.1-.4.3-.2.6-.4.9-.6l-.7-1.7c-.4.2-.8.4-1.2.6-.4.1-.9.2-1.4.2s-1,0-1.4-.2-.6-.4-.8-.6c-.2-.3-.3-.6-.4-1h5.9ZM191,64.8c0-.4.2-.7.4-1s.4-.4.6-.6c.3-.1.5-.2.8-.2s.6,0,.8.2c.3.1.5.3.6.6.2.3.3.6.4,1h-3.7ZM197.8,69.3c.3.2.6.4,1,.5.4.1.8.2,1.1.3s.7,0,.9,0c1.2,0,2.1-.2,2.7-.7.6-.5.9-1.1.9-2s-.2-1-.4-1.3c-.3-.4-.7-.7-1.1-1-.4-.3-.9-.5-1.4-.6-.3-.1-.6-.2-.9-.4-.3-.1-.4-.3-.4-.5,0-.2,0-.4.3-.5.2-.2.5-.2.8-.2s.8,0,1.1.2c.4.1.8.3,1.2.4l.7-1.6c-.3-.2-.6-.4-1-.5-.4-.1-.7-.2-1.1-.3-.3,0-.6-.1-.9-.1-1.1,0-1.9.2-2.5.7-.6.5-.9,1.1-.9,1.9s.1.9.4,1.2c.3.3.7.6,1.1.9.5.2.9.4,1.3.6.3,0,.6.2.8.3.2.1.4.3.5.4.1.1.2.3.2.4s0,.3-.3.4c-.2.1-.3.2-.6.3-.2,0-.4,0-.6,0s-.5,0-.7,0c-.2,0-.5-.1-.8-.2-.3,0-.5-.2-.8-.3l-.7,1.6ZM215.5,70c.6,0,1.2,0,1.8-.2.5-.2,1-.4,1.4-.7.4-.3.7-.7.9-1.1.2-.4.3-.9.3-1.5s-.2-1.4-.5-1.9c-.3-.5-.8-.9-1.4-1.2.3-.3.6-.6.9-.9.3-.4.4-.8.4-1.2,0-.8-.2-1.5-.5-2-.3-.5-.8-.9-1.4-1.1-.6-.2-1.3-.3-2.1-.3h-4.8v12.2h5ZM214.9,59.7c.4,0,.7,0,1,.1.3,0,.5.2.6.5.2.2.2.5.2.9s0,.6-.3.9c-.2.2-.5.4-.8.5-.3.1-.7.2-1.2.2h-1.7v-3h2.1ZM215.5,64.6c.6,0,1,.2,1.4.5.3.3.5.7.5,1.3s0,.6-.3.9c-.2.2-.4.4-.7.6-.3.1-.7.2-1.1.2h-2.5v-3.4h2.7ZM227.1,61.3v6c-.2.1-.4.3-.7.4-.2.2-.5.3-.8.4-.3.1-.6.2-.9.2s-.7-.1-.9-.4c-.2-.3-.3-.7-.3-1.3v-5.4h-2.3v5.5c0,.7,0,1.3.3,1.8.2.5.5.9.9,1.3.4.3,1,.5,1.8.5s.7,0,1-.2c.4,0,.8-.2,1.2-.4.4-.2.8-.4,1.2-.7l.4.9h1.5v-8.7h-2.3ZM233.8,70v-5.3c.3-.3.7-.6,1.1-.8.4-.2.8-.4,1.1-.5.3-.1.7-.2.9-.2l-.5-1.9c-.3,0-.7,0-1,.2-.4.2-.7.3-1.1.6-.3.2-.6.4-.9.6l-.8-1.5h-1.2v8.7h2.3ZM240.4,70v-6c.2-.1.4-.3.7-.5.3-.2.5-.3.8-.4.3-.1.6-.2.9-.2s.7.1.9.4c.2.3.3.7.3,1.3v5.4h2.3v-5.5c0-.7,0-1.3-.3-1.8-.2-.5-.5-1-.9-1.3-.4-.3-1-.5-1.8-.5s-.7,0-1,.1c-.4,0-.8.2-1.2.4-.4.2-.8.4-1.2.6l-.4-.9h-1.5v8.7h2.3ZM256.1,66.3v-.7c0-.8-.1-1.6-.4-2.3-.3-.7-.7-1.2-1.3-1.7-.6-.4-1.3-.6-2.2-.6s-1.7.2-2.3.6c-.7.4-1.2.9-1.5,1.6-.3.7-.5,1.5-.5,2.4s.2,1.7.6,2.4c.4.7.9,1.2,1.7,1.6.8.4,1.7.6,2.8.6s.9,0,1.3-.1c.4,0,.8-.2,1.1-.4.3-.2.6-.4.9-.6l-.7-1.7c-.4.2-.8.4-1.2.6-.4.1-.9.2-1.4.2s-1,0-1.4-.2-.6-.4-.8-.6c-.2-.3-.3-.6-.4-1h5.9ZM250.2,64.8c0-.4.2-.7.4-1s.4-.4.6-.6.5-.2.8-.2.6,0,.8.2c.3.1.5.3.6.6.2.3.3.6.4,1h-3.7ZM263.3,68.4l1.1,1.6h1.2v-12.7l-2.3.2v10.9ZM263.8,67.1c-.4.4-.8.7-1.2.9-.4.2-.7.3-1.2.3s-.8-.1-1.1-.3c-.3-.2-.6-.5-.7-.9-.2-.4-.2-.8-.2-1.3s0-1,.2-1.4c.2-.4.4-.7.7-.9s.7-.3,1.1-.3.8,0,1.1.3c.4.2.8.5,1.2,1l.6-1.6c-.2-.3-.4-.5-.8-.8-.3-.3-.7-.5-1.1-.6-.4-.2-.8-.2-1.2-.2-.9,0-1.7.2-2.4.6-.7.4-1.2.9-1.5,1.6-.3.7-.5,1.5-.5,2.4s.2,1.7.5,2.4c.4.7.9,1.2,1.5,1.6.7.4,1.4.6,2.3.6s.8,0,1.2-.2c.4-.1.7-.3,1-.6.3-.3.6-.5.9-.9l-.7-1.5Z"/>
    <path class="cls-4" d="M87.4,108h-3.1c-.6,0-1.2-.2-1.6-.7-.4-.4-.7-1-.7-1.7v-14.1c0-.6.2-1.2.7-1.7.4-.4,1-.7,1.6-.7h3.1c.6,0,1.2.2,1.6.7.4.4.7,1,.7,1.7v14.1c0,.6-.2,1.2-.7,1.7-.4.4-1,.7-1.6.7h0ZM108.9,108h-3.1c-.6,0-1.2-.2-1.6-.7-.4-.4-.7-1-.7-1.7v-23.5c0-.6.2-1.2.7-1.7.4-.4,1-.7,1.6-.7h3.1c.6,0,1.2.2,1.6.7.4.4.7,1,.7,1.7v23.5c0,.6-.2,1.2-.7,1.7-.4.4-1,.7-1.6.7h0ZM119.7,108h-3.1c-.6,0-1.2-.2-1.6-.7-.4-.4-.7-1-.7-1.7v-34.5c0-.6.2-1.2.7-1.7.4-.4,1-.7,1.6-.7h3.1c.6,0,1.2.2,1.6.7.4.4.7,1,.7,1.7v34.5c0,.6-.2,1.2-.7,1.7-.4.4-1,.7-1.6.7h0ZM98.2,108h-3.1c-.6,0-1.2-.2-1.6-.7-.4-.4-.7-1-.7-1.7v-42.3c0-.6.2-1.2.7-1.7.4-.4,1-.7,1.6-.7h3.1c.6,0,1.2.2,1.6.7.4.4.7,1,.7,1.7v42.3c0,.6-.2,1.2-.7,1.7-.4.4-1,.7-1.6.7h0Z"/>
  </g>
  <rect class="cls-1" x="124.4" y="73.6" width="160" height="50"/>
  <g>
    <path class="cls-3" d="M143.3,107.3l2.5-11.5c-.8.2-2.1.2-2.6.2l.7-3c1.8-.2,3.4-1,4.2-1.7h3l-3.4,16h-4.4Z"/>
    <path class="cls-3" d="M150.8,107.3v-.6c.7-2.9,2.2-5.1,6.1-7.6,2.4-1.5,3.2-2.1,3.2-3.6s-.3-1.4-1.3-1.4-1.7.8-2,2.5h-4.1c.4-2.6,1.8-5.6,6.4-5.6s5.4,2.3,5.4,4.6-1.1,3.8-4,5.5c-1.6,1-3.1,1.9-3.7,2.9h6.9l-1.2,3.4h-11.7Z"/>
    <path class="cls-3" d="M179.1,96.6c0,4.1-1.8,11-7.9,11s-5.4-2.3-5.4-5.7,2-11,7.9-11,5.4,2.3,5.4,5.7ZM170.5,101.1c-.3,2.2,0,3.4,1,3.4,2.1,0,2.8-4.6,3.1-7.2.3-2.2,0-3.2-1-3.2-1.9,0-2.8,3.6-3,7Z"/>
    <path class="cls-3" d="M200.8,101.7c-1.2,4-4,5.9-8.1,5.9s-6.6-2.7-6.6-6.9,2.5-10.5,9.2-10.5,6.5,2.3,6.5,5.9h-4.7c0-1.2-.4-2.5-2.2-2.5-2.8,0-4,4.5-4,7.4s.5,3.2,2.2,3.2,2.4-1.1,2.9-2.5h4.7Z"/>
    <path class="cls-3" d="M214,103.8c-.3,1.5-.6,2.9-.6,3.5h-4.3c0-.4,0-.9.1-1.3-.7.9-1.6,1.6-3.7,1.6s-3.5-1.6-3.5-3.3c0-3.3,2.6-4.6,6-4.9.9,0,1.9-.1,2.6-.1v-.6c.3-.8.2-1.6-1-1.6s-1.4.7-1.6,1.3h-4.3c.5-2.1,2-4,6.2-4s5.8,1.6,5.2,4.8l-1,4.7ZM210.1,101.7c-.6,0-1.2,0-1.7.1-1.4.3-1.8.8-1.8,1.6s.4,1,1.2,1c1.7,0,2.1-1.3,2.3-2.4v-.3Z"/>
    <path class="cls-3" d="M216,107.3l3.7-17.6h4.5l-3.7,17.6h-4.5Z"/>
  </g>
</svg>