<?xml version="1.0" encoding="UTF-8"?>
<svg id="Layer_1" data-name="Layer 1" xmlns="http://www.w3.org/2000/svg" version="1.1" viewBox="0 0 255 270">
  <defs>
    <style>
      .cls-1 {
        fill: #3d4549;
      }

      .cls-1, .cls-2, .cls-3, .cls-4 {
        stroke-width: 0px;
      }

      .cls-2 {
        fill: #fff;
      }

      .cls-3 {
        fill: #201dcd;
      }

      .cls-4 {
        fill: #141b22;
      }
    </style>
  </defs>
  <g>
    <rect class="cls-4" x="60" y="30" width="135" height="150" rx="10" ry="10"/>
    <path class="cls-2" d="M86.1,154c-.1,0-.3,0-.4-.2-.1-.1-.2-.2-.2-.4v-10.5l-3,2.3c-.1.1-.3.1-.4.1-.1,0-.2-.1-.4-.2l-1.3-1.7c0-.1-.1-.3-.1-.4,0-.2.1-.3.3-.4l5.1-3.9c0,0,.2,0,.2-.1,0,0,.2,0,.3,0h2.8c.2,0,.3,0,.4.2s.2.2.2.4v14.3c0,.1,0,.3-.2.4-.1.1-.2.2-.4.2h-2.9ZM98.4,154.2c-1.1,0-2-.1-2.8-.4-.8-.3-1.4-.7-1.9-1.3-.5-.5-.9-1.1-1.2-1.8-.3-.7-.4-1.5-.5-2.3,0-.4,0-.8,0-1.3v-1.5c0-.5,0-1,0-1.4,0-.8.2-1.6.5-2.2.3-.7.7-1.3,1.2-1.8.5-.5,1.2-.9,1.9-1.2.8-.3,1.7-.4,2.7-.4s1.9.1,2.7.4c.8.3,1.4.7,1.9,1.2.5.5.9,1.1,1.2,1.8.3.7.4,1.4.5,2.2,0,.4,0,.9,0,1.4,0,.5,0,1,0,1.5,0,.5,0,.9,0,1.3,0,.8-.2,1.6-.5,2.3-.3.7-.7,1.3-1.2,1.8-.5.5-1.1.9-1.9,1.3-.8.3-1.7.4-2.8.4ZM98.4,151c.8,0,1.3-.2,1.7-.7.4-.5.5-1.2.6-2,0-.4,0-.9,0-1.3,0-.5,0-.9,0-1.4,0-.5,0-.9,0-1.3,0-.8-.2-1.5-.6-2-.3-.5-.9-.8-1.7-.8-.7,0-1.3.3-1.7.8-.3.5-.5,1.2-.6,2,0,.4,0,.8,0,1.3v1.4c0,.5,0,.9,0,1.3,0,.8.2,1.5.6,2,.4.5.9.7,1.6.7ZM113.3,154.2c-1.1,0-2-.1-2.8-.4-.8-.3-1.4-.7-1.9-1.3-.5-.5-.9-1.1-1.2-1.8-.3-.7-.4-1.5-.5-2.3,0-.4,0-.8,0-1.3v-1.5c0-.5,0-1,0-1.4,0-.8.2-1.6.5-2.2.3-.7.7-1.3,1.2-1.8.5-.5,1.2-.9,1.9-1.2.8-.3,1.7-.4,2.7-.4s1.9.1,2.7.4c.8.3,1.4.7,1.9,1.2.5.5.9,1.1,1.2,1.8.3.7.4,1.4.5,2.2,0,.4,0,.9,0,1.4,0,.5,0,1,0,1.5,0,.5,0,.9,0,1.3,0,.8-.2,1.6-.5,2.3-.3.7-.7,1.3-1.2,1.8-.5.5-1.1.9-1.9,1.3-.8.3-1.7.4-2.8.4ZM113.3,151c.8,0,1.3-.2,1.7-.7.4-.5.5-1.2.5-2,0-.4,0-.9,0-1.3,0-.5,0-.9,0-1.4,0-.5,0-.9,0-1.3,0-.8-.2-1.5-.5-2-.3-.5-.9-.8-1.7-.8-.7,0-1.3.3-1.7.8-.3.5-.5,1.2-.5,2,0,.4,0,.8,0,1.3v1.4c0,.5,0,.9,0,1.3,0,.8.2,1.5.6,2,.4.5.9.7,1.6.7ZM133.8,154.2c-.8,0-1.5-.1-2-.4-.6-.3-1-.6-1.4-1.1v.7c0,.1,0,.3-.2.4-.1.1-.2.2-.4.2h-2.5c-.2,0-.3,0-.4-.2-.1-.1-.2-.2-.2-.4v-14.5c0-.2,0-.3.2-.4.1-.1.2-.2.4-.2h2.7c.2,0,.3,0,.4.2.1.1.2.2.2.4v4.7c.4-.4.8-.7,1.3-.9.5-.2,1.2-.4,1.9-.4s1.4.1,1.9.4c.6.2,1.1.6,1.5,1,.4.4.7,1,.9,1.6.2.6.3,1.3.4,2.1,0,.3,0,.6,0,.8s0,.5,0,.8c0,.8-.2,1.6-.4,2.2-.2.6-.5,1.2-.9,1.6-.4.4-.9.8-1.4,1-.6.2-1.2.3-1.9.3ZM132.6,151.3c.5,0,.9-.1,1.2-.3.3-.2.5-.5.6-.8.1-.4.2-.7.2-1.2,0-.5,0-.9,0-1.4,0-.4-.1-.8-.2-1.2-.1-.4-.3-.6-.6-.8-.3-.2-.7-.3-1.2-.3s-.8.1-1.1.3c-.3.2-.5.4-.7.8-.1.3-.2.6-.2,1,0,.3,0,.5,0,.8s0,.5,0,.8c0,.4.1.8.2,1.1.1.3.3.6.6.8.3.2.7.3,1.1.3ZM141.3,158.2c-.2,0-.3,0-.4-.2-.1-.1-.2-.2-.2-.4v-14.5c0-.2,0-.3.2-.4.1-.1.2-.2.4-.2h2.5c.1,0,.3,0,.4.2.1.1.2.2.2.4v.8c.4-.4.8-.8,1.4-1.1.6-.3,1.2-.5,2-.5s1.4.1,1.9.4c.6.2,1,.6,1.4,1,.4.4.7,1,.9,1.6.2.6.3,1.4.4,2.2,0,.3,0,.6,0,.8s0,.5,0,.8c0,.8-.2,1.5-.4,2.1s-.5,1.2-.9,1.6-.9.8-1.5,1c-.6.2-1.2.4-1.9.4s-1.3-.1-1.9-.4c-.5-.3-1-.6-1.3-1.1v4.9c0,.1,0,.3-.2.4-.1.1-.2.2-.4.2h-2.7ZM146.5,151.3c.5,0,.9-.1,1.2-.3.3-.2.5-.5.6-.8.1-.4.2-.7.2-1.2,0-.5,0-.9,0-1.4,0-.4-.1-.8-.2-1.2-.1-.4-.3-.6-.6-.8-.3-.2-.7-.3-1.2-.3s-.8.1-1.1.3c-.3.2-.5.5-.6.8-.1.3-.2.7-.2,1.1,0,.3,0,.6,0,.8s0,.5,0,.8c0,.4,0,.7.2,1,.1.3.4.6.7.8.3.2.7.3,1.1.3ZM155.1,154c-.2,0-.3,0-.4-.2-.1-.1-.2-.2-.2-.4v-10.3c0-.2,0-.3.2-.4.1-.1.2-.2.4-.2h2.4c.2,0,.3,0,.4.2.1.1.2.2.2.4v.7c.3-.4.7-.7,1.2-1,.5-.3,1.2-.5,1.9-.5,1.7,0,2.9.6,3.5,1.9.3-.6.8-1,1.4-1.4.6-.4,1.3-.5,2.1-.5s1.4.2,2,.5c.6.3,1.1.9,1.5,1.6.4.7.5,1.6.5,2.8v6.2c0,.1,0,.3-.2.4-.1.1-.2.2-.4.2h-2.6c-.2,0-.3,0-.4-.2-.1-.1-.2-.2-.2-.4v-6.1c0-.5,0-.9-.2-1.2-.1-.3-.3-.5-.6-.7-.2-.1-.5-.2-.9-.2s-.5,0-.8.2c-.2.1-.5.4-.6.7-.1.3-.2.7-.2,1.2v6.1c0,.1,0,.3-.2.4-.1.1-.2.2-.4.2h-2.6c-.2,0-.3,0-.4-.2-.1-.1-.2-.2-.2-.4v-6.1c0-.5,0-.9-.2-1.2-.2-.3-.4-.5-.6-.7-.2-.1-.5-.2-.8-.2s-.6,0-.8.2c-.2.1-.5.4-.6.7-.1.3-.2.7-.2,1.2v6.1c0,.1,0,.3-.2.4-.1.1-.2.2-.4.2h-2.6Z"/>
    <path class="cls-1" d="M91,116v-12.2h-2.3v5.2h-4.8v-5.3h-2.3v12.3h2.3v-5.2h4.8v5.2h2.3ZM101.4,112.3v-.7c0-.8-.1-1.6-.4-2.3-.3-.7-.7-1.2-1.3-1.7-.6-.4-1.3-.6-2.2-.6s-1.7.2-2.3.6c-.7.4-1.2.9-1.5,1.6-.3.7-.5,1.5-.5,2.4s.2,1.7.6,2.4c.4.7.9,1.2,1.7,1.6.8.4,1.7.6,2.8.6s.9,0,1.3-.1c.4,0,.7-.2,1.1-.4.3-.2.6-.4.9-.6l-.7-1.7c-.4.2-.8.4-1.2.6-.4.1-.9.2-1.4.2s-1,0-1.4-.2-.6-.4-.8-.6c-.2-.3-.3-.6-.4-1h5.9ZM95.5,110.8c0-.4.2-.7.4-1s.4-.4.6-.6c.3-.1.5-.2.8-.2s.6,0,.8.2c.3.1.5.3.6.6s.3.6.4,1h-3.7ZM104.6,113.4c0-.3.1-.6.3-.8.2-.3.5-.4.9-.4h1.8v1.3c-.3.3-.6.5-1,.6-.3.1-.6.2-1,.2s-.4,0-.6-.1c-.2,0-.3-.2-.4-.4,0-.2-.1-.3-.1-.5ZM103.6,109.8c.3-.1.7-.3,1.2-.4.5-.1.9-.2,1.3-.2s.8.1,1,.4c.3.2.4.6.4,1h0s-1.7,0-1.7,0c-1,0-1.8.3-2.4.7-.6.5-.9,1.2-.9,2.1s.3,1.5.8,2.1c.5.5,1.3.8,2.4.8s.8-.1,1.2-.3c.4-.2.8-.5,1.1-.8l.4.9h1.5v-5.7c0-.6-.2-1.2-.5-1.7-.3-.5-.8-.9-1.4-1.2-.6-.3-1.2-.4-1.9-.4s-.6,0-1,.1c-.4,0-.8.2-1.2.3-.4.1-.7.2-.9.4l.6,1.9ZM114.2,116v-5.3c.3-.3.7-.6,1.1-.8.4-.2.8-.4,1.1-.5.3-.1.7-.2.9-.2l-.5-1.9c-.3,0-.7,0-1,.2-.4.2-.7.3-1.1.6-.3.2-.6.4-.9.6l-.8-1.5h-1.2v8.7h2.3ZM122.7,107.3h-1.6v-2.5l-2.3.4v2.1h-1.2v1.8s1.2,0,1.2,0v4.1c0,.7.1,1.2.4,1.7.3.5.7.8,1.2,1.1.5.2,1.1.4,1.9.4s.4,0,.6,0c.2,0,.4-.1.6-.2.2,0,.4-.2.5-.3l-.7-1.7c-.2,0-.3.1-.5.2-.2,0-.3,0-.5,0-.4,0-.7-.1-1-.4-.2-.3-.3-.7-.3-1.1v-3.7h2.3l-.7-1.8ZM133.6,105.7c.5,0,1,0,1.3.2.4.1.6.3.8.6.2.3.3.6.3,1.1s-.1.8-.3,1c-.2.3-.5.4-.8.6s-.8.2-1.2.2h-1.5v-3.7h1.4ZM129.9,103.8v12.2h2.3v-4.6h1.1c.2,0,.4,0,.5,0,.2,0,.4,0,.6,0l2.6,4.6h2.5l-3-5.3c.6-.3,1.1-.7,1.5-1.2.4-.6.6-1.2.6-2s-.2-1.6-.7-2.1c-.4-.6-1-1-1.7-1.2-.7-.3-1.5-.4-2.4-.4h-3.8ZM142.4,113.4c0-.3.1-.6.3-.8s.5-.4.9-.4h1.8v1.3c-.3.3-.6.5-1,.6-.3.1-.6.2-1,.2s-.4,0-.6-.1c-.2,0-.3-.2-.4-.4,0-.2-.1-.3-.1-.5ZM141.5,109.8c.3-.1.7-.3,1.2-.4.5-.1.9-.2,1.3-.2s.8.1,1,.4c.3.2.4.6.4,1h0s-1.7,0-1.7,0c-1,0-1.8.3-2.4.7-.6.5-.9,1.2-.9,2.1s.3,1.5.8,2.1c.5.5,1.3.8,2.4.8s.8-.1,1.2-.3c.4-.2.8-.5,1.1-.8l.4.9h1.5v-5.7c0-.6-.2-1.2-.5-1.7-.3-.5-.8-.9-1.4-1.2-.6-.3-1.2-.4-1.9-.4s-.6,0-1,.1c-.4,0-.8.2-1.2.3-.4.1-.7.2-.9.4l.6,1.9ZM154,107.3h-1.6v-2.5l-2.3.4v2.1h-1.2v1.8s1.2,0,1.2,0v4.1c0,.7.1,1.2.4,1.7.3.5.7.8,1.2,1.1.5.2,1.1.4,1.9.4s.4,0,.6,0c.2,0,.4-.1.6-.2.2,0,.4-.2.5-.3l-.7-1.7c-.2,0-.3.1-.5.2-.2,0-.3,0-.5,0-.4,0-.7-.1-1-.4-.2-.3-.3-.7-.3-1.1v-3.7h2.3l-.7-1.8ZM164.4,112.3v-.7c0-.8-.1-1.6-.4-2.3-.3-.7-.7-1.2-1.3-1.7-.6-.4-1.3-.6-2.2-.6s-1.7.2-2.3.6c-.7.4-1.2.9-1.5,1.6-.3.7-.5,1.5-.5,2.4s.2,1.7.6,2.4c.4.7.9,1.2,1.7,1.6.8.4,1.7.6,2.8.6s.9,0,1.3-.1c.4,0,.8-.2,1.1-.4.3-.2.6-.4.9-.6l-.7-1.7c-.4.2-.8.4-1.2.6-.4.1-.9.2-1.4.2s-1,0-1.4-.2-.6-.4-.8-.6c-.2-.3-.3-.6-.4-1h5.9ZM158.5,110.8c0-.4.2-.7.4-1s.4-.4.6-.6c.3-.1.5-.2.8-.2s.6,0,.8.2c.3.1.5.3.6.6s.3.6.4,1h-3.7Z"/>
    <path class="cls-3" d="M98.3,83.8c-.6,0-1.1-.2-1.6-.5-6.9-4.7-9.9-7.9-11.5-9.9-3.5-4.3-5.2-8.7-5.2-13.4,0-5.5,4.4-9.9,9.8-9.9s6.6,2.2,8.1,4c0,0,.1.1.2.1s.1,0,.2,0,.2,0,.2,0,.1,0,.2-.1c1.6-1.8,4.2-4,8.1-4s9.7,4.4,9.8,9.9c0,4.8-1.6,9.2-5.2,13.4-1.6,2-4.6,5.2-11.5,9.9-.5.3-1,.5-1.6.5h0Z"/>
  </g>
  <rect class="cls-4" x="60" y="134" width="135" height="25.5"/>
  <g>
    <path class="cls-2" d="M81.5,154l2.5-11.5c-.8.2-2.1.2-2.6.2l.7-3c1.8-.2,3.4-1,4.2-1.7h3l-3.4,16h-4.4Z"/>
    <path class="cls-2" d="M103.5,143.4c0,4.1-1.8,11-7.9,11s-5.4-2.3-5.4-5.7,2-11,7.9-11,5.4,2.3,5.4,5.7ZM94.8,147.9c-.3,2.2,0,3.4,1,3.4,2.1,0,2.8-4.6,3.1-7.2.3-2.2,0-3.2-1-3.2-1.9,0-2.8,3.6-3,7Z"/>
    <path class="cls-2" d="M118.3,143.4c0,4.1-1.8,11-7.9,11s-5.4-2.3-5.4-5.7,2-11,7.9-11,5.4,2.3,5.4,5.7ZM109.6,147.9c-.3,2.2,0,3.4,1,3.4,2.1,0,2.8-4.6,3.1-7.2.3-2.2,0-3.2-1-3.2-1.9,0-2.8,3.6-3,7Z"/>
    <path class="cls-2" d="M128,137.3h7.1c3.7,0,5.2,1.9,5.2,4.2s-1.1,3.4-2.9,4c1.2.5,2.1,1.8,2.1,3.3,0,3.2-2.5,5.2-6.8,5.2h-8.3l3.5-16.8ZM129.6,150.9h2.5c1.6,0,2.6-.8,2.6-2.1s-.6-1.7-2.2-1.7h-2.1l-.8,3.9ZM133.3,143.9c1.4,0,2.4-.6,2.4-1.9s-.8-1.5-1.8-1.5h-2.1l-.7,3.4h2.2Z"/>
    <path class="cls-2" d="M145,153.1l-1.2,5.6h-4.4l2.9-13.7c.4-1.7.6-2.8.7-3.7h4.3c0,.3-.1.9-.2,1.4.6-.8,1.7-1.7,3.6-1.7s3.9,1.7,3.9,4.9-2.4,8.4-6.9,8.4-2.4-.5-2.8-1.2ZM150.1,146.2c0-1.5-.6-2-1.5-2-1.4,0-2.2,1.4-2.7,3.7-.4,1.8-.2,3.2,1.3,3.2s2.9-3.2,2.9-4.9Z"/>
    <path class="cls-2" d="M157.3,145c.4-1.8.6-2.8.7-3.7h4.3c0,.3-.1.9-.2,1.3.9-1,1.9-1.6,3.5-1.6s2.6.9,2.8,1.8c.9-1,2.1-1.8,4.1-1.8s3.8,1.4,3.1,4.8l-1.7,8.2h-4.3l1.6-7.9c.2-.9.1-1.7-1-1.7s-1.6.8-1.9,2.3l-1.5,7.3h-4.4l1.7-8c.2-.8,0-1.6-1-1.6s-1.6.7-1.9,2.4l-1.5,7.2h-4.4l1.9-9Z"/>
  </g>
</svg>